<?xml version="1.0" encoding="UTF-8" standalone="no"?>
<svg width="24px" height="24px" viewBox="0 0 24 24" version="1.1" xmlns="http://www.w3.org/2000/svg" xmlns:xlink="http://www.w3.org/1999/xlink">
    <!-- Generator: Sketch 39.1 (31720) - http://www.bohemiancoding.com/sketch -->
    <title>实心书</title>
    <desc>Created with Sketch.</desc>
    <defs></defs>
    <g id="Page-1" stroke="none" stroke-width="1" fill="none" fill-rule="evenodd">
        <path d="M20.5714286,6.85714286 C20.5714286,7.33028571 20.1874286,7.71428571 19.7142857,7.71428571 L10.2865714,7.71428571 C9.81257143,7.71428571 9.42942857,7.33028571 9.42942857,6.85714286 L9.42942857,5.14285714 C9.42942857,4.66971429 9.81257143,4.28571429 10.2865714,4.28571429 L19.7142857,4.28571429 C20.1874286,4.28571429 20.5714286,4.66971429 20.5714286,5.14285714 L20.5714286,6.85714286 L20.5714286,6.85714286 Z M20.5714286,12.8571429 C20.5714286,13.3302857 20.1874286,13.7142857 19.7142857,13.7142857 L10.2865714,13.7142857 C9.81257143,13.7142857 9.42942857,13.3302857 9.42942857,12.8571429 L9.42942857,11.1428571 C9.42942857,10.6688571 9.81257143,10.2857143 10.2865714,10.2857143 L19.7142857,10.2857143 C20.1874286,10.2857143 20.5714286,10.6688571 20.5714286,11.1428571 L20.5714286,12.8571429 L20.5714286,12.8571429 Z M20.5714286,18.8571429 C20.5714286,19.3302857 20.1874286,19.7142857 19.7142857,19.7142857 L10.2865714,19.7142857 C9.81257143,19.7142857 9.42942857,19.3302857 9.42942857,18.8571429 L9.42942857,17.1428571 C9.42942857,16.6688571 9.81257143,16.2857143 10.2865714,16.2857143 L19.7142857,16.2857143 C20.1874286,16.2857143 20.5714286,16.6688571 20.5714286,17.1428571 L20.5714286,18.8571429 L20.5714286,18.8571429 Z M6.858,6.85714286 C6.858,7.33028571 6.47314286,7.71428571 6,7.71428571 L4.28571429,7.71428571 C3.81257143,7.71428571 3.42942857,7.33028571 3.42942857,6.85714286 L3.42942857,5.14285714 C3.42942857,4.66971429 3.81257143,4.28571429 4.28571429,4.28571429 L6,4.28571429 C6.47314286,4.28571429 6.858,4.66971429 6.858,5.14285714 L6.858,6.85714286 L6.858,6.85714286 Z M6.858,12.8571429 C6.858,13.3302857 6.47314286,13.7142857 6,13.7142857 L4.28571429,13.7142857 C3.81257143,13.7142857 3.42942857,13.3302857 3.42942857,12.8571429 L3.42942857,11.1428571 C3.42942857,10.6688571 3.81257143,10.2857143 4.28571429,10.2857143 L6,10.2857143 C6.47314286,10.2857143 6.858,10.6688571 6.858,11.1428571 L6.858,12.8571429 L6.858,12.8571429 Z M6.858,18.8571429 C6.858,19.3302857 6.47314286,19.7142857 6,19.7142857 L4.28571429,19.7142857 C3.81257143,19.7142857 3.42942857,19.3302857 3.42942857,18.8571429 L3.42942857,17.1428571 C3.42942857,16.6688571 3.81257143,16.2857143 4.28571429,16.2857143 L6,16.2857143 C6.47314286,16.2857143 6.858,16.6688571 6.858,17.1428571 L6.858,18.8571429 L6.858,18.8571429 Z M22.2857143,0 L1.71428571,0 C0.768,0 0,0.768 0,1.71428571 L0,22.2865714 C0,23.232 0.768,24 1.71428571,24 L22.2857143,24 C23.2328571,24 24,23.232 24,22.2865714 L24,1.71428571 C24,0.768 23.2328571,0 22.2857143,0 L22.2857143,0 Z" id="Fill-2" fill="#000000"></path>
    </g>
</svg>