<?xml version="1.0" encoding="UTF-8" standalone="no"?>
<svg width="24px" height="24px" viewBox="0 0 24 24" version="1.1" xmlns="http://www.w3.org/2000/svg" xmlns:xlink="http://www.w3.org/1999/xlink">
    <!-- Generator: Sketch 39.1 (31720) - http://www.bohemiancoding.com/sketch -->
    <title>实心下载</title>
    <desc>Created with Sketch.</desc>
    <defs></defs>
    <g id="Page-1" stroke="none" stroke-width="1" fill="none" fill-rule="evenodd">
        <path d="M18.858,18.8571429 L5.14285714,18.8571429 C4.66971429,18.8571429 4.28571429,19.2402857 4.28571429,19.7142857 C4.28571429,20.1874286 4.66971429,20.5714286 5.14285714,20.5714286 L18.858,20.5714286 C19.3311429,20.5714286 19.7151429,20.1874286 19.7151429,19.7142857 C19.7151429,19.2402857 19.3311429,18.8571429 18.858,18.8571429 L18.858,18.8571429 Z M17.7668571,11.1488571 L13.7142857,11.1488571 L13.7142857,4.28571429 C13.7142857,3.81171429 13.3311429,3.42857143 12.8571429,3.42857143 L11.1428571,3.42857143 C10.6697143,3.42857143 10.2857143,3.81171429 10.2857143,4.28571429 L10.2857143,11.1488571 L6.234,11.1488571 C5.94514286,11.3502857 5.898,11.3777143 6.18942857,11.6691429 L11.472,16.9311429 C11.7634286,17.2217143 12.2365714,17.2217143 12.528,16.9311429 L17.8114286,11.6691429 C18.1028571,11.3777143 18.0557143,11.3502857 17.7668571,11.1488571 L17.7668571,11.1488571 Z M22.2865714,24 L1.71514286,24 C0.768,24 0,23.232 0,22.2865714 L0,1.71428571 C0,0.768 0.768,0 1.71514286,0 L22.2865714,0 C23.2328571,0 24,0.768 24,1.71428571 L24,22.2865714 C24,23.232 23.2328571,24 22.2865714,24 L22.2865714,24 Z" id="Fill-1" fill="#000000"></path>
    </g>
</svg>