<?xml version="1.0" encoding="UTF-8" standalone="no"?>
<svg width="24px" height="24px" viewBox="0 0 24 24" version="1.1" xmlns="http://www.w3.org/2000/svg" xmlns:xlink="http://www.w3.org/1999/xlink">
    <!-- Generator: Sketch 39.1 (31720) - http://www.bohemiancoding.com/sketch -->
    <title>fresh-circle</title>
    <desc>Created with Sketch.</desc>
    <defs></defs>
    <g id="Page-1" stroke="none" stroke-width="1" fill="none" fill-rule="evenodd">
        <path d="M12.0637438,2.52000427 C6.79288203,2.52000427 2.52000427,6.79288203 2.52000427,12.0637438 C2.52000427,17.3346057 6.79288203,21.6074834 12.0637438,21.6074834 C14.9999905,21.6074834 17.6265343,20.2814872 19.377227,18.1956427 L17.8908546,17.6546473 C16.4212172,19.18598 14.3538006,20.1392158 12.0637438,20.1392158 C7.60378385,20.1392158 3.9882719,16.5237039 3.9882719,12.0637438 C3.9882719,7.60378385 7.60378385,3.9882719 12.0637438,3.9882719 C16.5136599,3.9882719 20.122927,7.58751765 20.1391608,12.0336248 L17.9066953,12.0336248 L20.8733496,15.0002791 L23.840004,12.0336248 L21.6074411,12.0336248 C21.5911963,6.77661409 17.3245623,2.52000427 12.0637438,2.52000427 Z" id="fresh-circle" fill="#000000"></path>
    </g>
</svg>