<?xml version="1.0" encoding="UTF-8" standalone="no"?>
<svg width="24px" height="24px" viewBox="0 0 24 24" version="1.1" xmlns="http://www.w3.org/2000/svg" xmlns:xlink="http://www.w3.org/1999/xlink">
    <!-- Generator: Sketch 39.1 (31720) - http://www.bohemiancoding.com/sketch -->
    <title>实心电话</title>
    <desc>Created with Sketch.</desc>
    <defs></defs>
    <g id="Page-1" stroke="none" stroke-width="1" fill="none" fill-rule="evenodd">
        <path d="M5.34430697,7.58971428 C3.80609512,9.13171428 4.46565035,12.2952143 6.81798896,14.6547143 L9.1500682,16.9932143 C11.5024068,19.3519643 14.6561163,20.0134643 16.1943281,18.4714643 C16.1943281,18.4714643 17.4226466,17.4184643 18.0852032,16.5754643 C18.3125584,16.2852143 18.9503536,16.2919643 19.618913,16.5544643 C20.9320206,17.0697143 22.8003853,18.6679643 23.6932985,19.4749643 C24.2643128,19.9902143 23.9424138,20.2632143 23.5027103,20.9727143 C23.1808113,21.4932143 22.6000426,21.9687143 22.0545401,22.3894643 C18.0289271,25.4899643 11.5496787,23.9674643 6.76021223,19.0932143 C6.73845216,19.0767143 6.71744243,19.0617143 6.69643271,19.0452143 C0.417526964,14.1537143 -1.84852172,6.54271428 1.6345902,2.04571428 C2.17333952,1.34971428 2.84865204,0.62971428 3.43017115,0.26971428 C3.83986075,0.0169642802 3.96967082,-0.27478572 4.62097223,0.50596428 C5.3908285,1.42996428 6.76396396,3.14221428 7.33047613,4.26196428 C7.36874384,4.33846428 7.66963309,5.27896428 7.35148585,5.57596428 C6.5771275,6.30271428 5.34430697,7.58971428 5.34430697,7.58971428" id="Fill-2" fill="#000000"></path>
    </g>
</svg>