<?xml version="1.0" encoding="UTF-8" standalone="no"?>
<svg width="24px" height="24px" viewBox="0 0 24 24" version="1.1" xmlns="http://www.w3.org/2000/svg" xmlns:xlink="http://www.w3.org/1999/xlink">
    <!-- Generator: Sketch 39.1 (31720) - http://www.bohemiancoding.com/sketch -->
    <title>实心位置</title>
    <desc>Created with Sketch.</desc>
    <defs></defs>
    <g id="Page-1" stroke="none" stroke-width="1" fill="none" fill-rule="evenodd">
        <path d="M11.996,5.007 C9.24,5.007 7.007,7.245 7.007,10.006 C7.007,12.766 9.24,15.005 11.996,15.005 C14.751,15.005 16.985,12.766 16.985,10.006 C16.985,7.245 14.751,5.007 11.996,5.007 L11.996,5.007 Z M19.209,17.179 L19.269,17.179 C19.269,17.179 15.719,21.388 13.933,22.935 C12.316,24.336 11.604,24.39 10.229,23.071 C8.022,20.953 4.707,17.11 4.707,17.11 L4.717,17.11 C3.037,15.292 2,12.852 2,10.16 C2,4.549 6.474,0 11.994,0 C17.513,0 21.988,4.549 21.988,10.16 C21.988,12.885 20.927,15.354 19.209,17.179 L19.209,17.179 Z" id="Fill-3" fill="#000000"></path>
    </g>
</svg>