<?xml version="1.0" encoding="UTF-8" standalone="no"?>
<svg width="24px" height="24px" viewBox="0 0 24 24" version="1.1" xmlns="http://www.w3.org/2000/svg" xmlns:xlink="http://www.w3.org/1999/xlink">
    <!-- Generator: Sketch 39.1 (31720) - http://www.bohemiancoding.com/sketch -->
    <title>实心三角向下</title>
    <desc>Created with Sketch.</desc>
    <defs></defs>
    <g id="Page-1" stroke="none" stroke-width="1" fill="none" fill-rule="evenodd">
        <path d="M11.315192,19.34862 C11.243197,19.33319 11.176345,19.31091 11.107778,19.28862 C11.027212,19.26462 10.948361,19.23891 10.871223,19.20634 C10.847225,19.19777 10.823227,19.19091 10.799229,19.18063 C10.759803,19.16349 10.728948,19.13778 10.691236,19.11892 C10.619241,19.08121 10.547247,19.0435 10.47868,18.99893 C10.418684,18.96122 10.365545,18.92179 10.308978,18.87722 C10.254125,18.83437 10.2027,18.79151 10.151275,18.74352 C10.094708,18.69209 10.046711,18.63381 10.002143,18.57724 C9.97643,18.5481 9.943861,18.52411 9.921577,18.49325 L0.322263,6.82323 C0.1937,6.6501 0.116563,6.46668 0.065138,6.27812 C0.058282,6.25584 0.049711,6.23527 0.044568,6.21127 C0.027427,6.12728 0.015427,6.045 0.013713,5.961 C0.010285,5.92672 0,5.89586 0,5.8633 C0,5.84444 0.006857,5.82558 0.006857,5.80673 C0.010285,5.75359 0.02057,5.70559 0.027427,5.65417 C0.039426,5.57017 0.053139,5.49132 0.078852,5.41247 C0.351403,4.65481 1.131348,4.11828 2.096422,4.02228 C2.209556,4.012 2.302121,4 2.401543,4 L21.600171,4 C21.696165,4 21.788729,4.012 21.886437,4.02057 C22.868652,4.11828 23.648597,4.65481 23.902293,5.36962 C23.945147,5.49132 23.95886,5.57017 23.970859,5.65245 C23.981144,5.70559 23.989715,5.75359 23.991429,5.80844 C23.991429,5.82558 24,5.84444 24,5.8633 C24,5.89586 23.989715,5.92672 23.986287,5.95929 C23.982858,6.04328 23.972573,6.12728 23.955432,6.21127 C23.948575,6.23527 23.941718,6.25584 23.934862,6.27812 C23.883437,6.46497 23.8063,6.64838 23.677737,6.82323 L14.078423,18.49325 C14.056139,18.52411 14.02357,18.54982 13.999571,18.57724 C13.951575,18.63724 13.901864,18.69209 13.847011,18.74352 C13.799014,18.79151 13.744161,18.83437 13.691022,18.87722 C13.636169,18.92008 13.581316,18.96122 13.519606,18.99893 C13.452753,19.0435 13.380759,19.08121 13.308764,19.11892 C13.271052,19.13778 13.240197,19.16349 13.199057,19.18063 C13.176773,19.19091 13.151061,19.19777 13.127062,19.20634 C13.049925,19.23891 12.972788,19.26462 12.892222,19.28691 C12.823655,19.31091 12.755089,19.33319 12.684808,19.34862 C12.611099,19.36747 12.535676,19.37776 12.458539,19.38804 C12.383115,19.40004 12.305978,19.41376 12.228841,19.4189 C12.153418,19.42576 12.07628,19.42404 11.999143,19.42404 C11.922006,19.42404 11.844868,19.42576 11.769445,19.4189 C11.692308,19.41376 11.616885,19.40004 11.539747,19.38804 C11.46261,19.37776 11.388901,19.36747 11.315192,19.34862 Z" id="Fill-1" fill="#000000"></path>
    </g>
</svg>